<svg width="40" height="40" viewBox="0 0 45 49" fill="none" xmlns="http://www.w3.org/2000/svg">
<g filter="url(#filter0_ddddd_4155_526)">
<mask id="path-1-inside-1_4155_526" fill="white">
<path d="M40.475 16.5036C39.8018 15.8 39.1054 15.075 38.8429 14.4375C38.6 13.8536 38.5857 12.8857 38.5714 11.9482C38.5446 10.2054 38.5161 8.23036 37.1429 6.85714C35.7696 5.48393 33.7946 5.45536 32.0518 5.42857C31.1143 5.41429 30.1464 5.4 29.5625 5.15714C28.9268 4.89464 28.2 4.19821 27.4964 3.525C26.2643 2.34107 24.8643 1 23 1C21.1357 1 19.7375 2.34107 18.5036 3.525C17.8 4.19821 17.075 4.89464 16.4375 5.15714C15.8571 5.4 14.8857 5.41429 13.9482 5.42857C12.2054 5.45536 10.2304 5.48393 8.85714 6.85714C7.48393 8.23036 7.46429 10.2054 7.42857 11.9482C7.41429 12.8857 7.4 13.8536 7.15714 14.4375C6.89464 15.0732 6.19821 15.8 5.525 16.5036C4.34107 17.7357 3 19.1357 3 21C3 22.8643 4.34107 24.2625 5.525 25.4964C6.19821 26.2 6.89464 26.925 7.15714 27.5625C7.4 28.1464 7.41429 29.1143 7.42857 30.0518C7.45536 31.7946 7.48393 33.7696 8.85714 35.1429C10.2304 36.5161 12.2054 36.5446 13.9482 36.5714C14.8857 36.5857 15.8536 36.6 16.4375 36.8429C17.0732 37.1054 17.8 37.8018 18.5036 38.475C19.7357 39.6589 21.1357 41 23 41C24.8643 41 26.2625 39.6589 27.4964 38.475C28.2 37.8018 28.925 37.1054 29.5625 36.8429C30.1464 36.6 31.1143 36.5857 32.0518 36.5714C33.7946 36.5446 35.7696 36.5161 37.1429 35.1429C38.5161 33.7696 38.5446 31.7946 38.5714 30.0518C38.5857 29.1143 38.6 28.1464 38.8429 27.5625C39.1054 26.9268 39.8018 26.2 40.475 25.4964C41.6589 24.2643 43 22.8643 43 21C43 19.1357 41.6589 17.7375 40.475 16.5036ZM31.1536 17.725L21.1536 27.725C21.0209 27.8578 20.8633 27.9632 20.6899 28.0351C20.5165 28.107 20.3306 28.144 20.1429 28.144C19.9551 28.144 19.7692 28.107 19.5958 28.0351C19.4224 27.9632 19.2648 27.8578 19.1321 27.725L14.8464 23.4393C14.5784 23.1712 14.4278 22.8077 14.4278 22.4286C14.4278 22.0495 14.5784 21.6859 14.8464 21.4179C15.1145 21.1498 15.4781 20.9992 15.8571 20.9992C16.2362 20.9992 16.5998 21.1498 16.8679 21.4179L20.1429 24.6946L29.1321 15.7036C29.2649 15.5708 29.4224 15.4656 29.5959 15.3937C29.7693 15.3219 29.9552 15.2849 30.1429 15.2849C30.3306 15.2849 30.5164 15.3219 30.6899 15.3937C30.8633 15.4656 31.0208 15.5708 31.1536 15.7036C31.2863 15.8363 31.3916 15.9939 31.4634 16.1673C31.5353 16.3407 31.5722 16.5266 31.5722 16.7143C31.5722 16.902 31.5353 17.0879 31.4634 17.2613C31.3916 17.4347 31.2863 17.5923 31.1536 17.725Z"/>
</mask>
<path d="M40.475 16.5036C39.8018 15.8 39.1054 15.075 38.8429 14.4375C38.6 13.8536 38.5857 12.8857 38.5714 11.9482C38.5446 10.2054 38.5161 8.23036 37.1429 6.85714C35.7696 5.48393 33.7946 5.45536 32.0518 5.42857C31.1143 5.41429 30.1464 5.4 29.5625 5.15714C28.9268 4.89464 28.2 4.19821 27.4964 3.525C26.2643 2.34107 24.8643 1 23 1C21.1357 1 19.7375 2.34107 18.5036 3.525C17.8 4.19821 17.075 4.89464 16.4375 5.15714C15.8571 5.4 14.8857 5.41429 13.9482 5.42857C12.2054 5.45536 10.2304 5.48393 8.85714 6.85714C7.48393 8.23036 7.46429 10.2054 7.42857 11.9482C7.41429 12.8857 7.4 13.8536 7.15714 14.4375C6.89464 15.0732 6.19821 15.8 5.525 16.5036C4.34107 17.7357 3 19.1357 3 21C3 22.8643 4.34107 24.2625 5.525 25.4964C6.19821 26.2 6.89464 26.925 7.15714 27.5625C7.4 28.1464 7.41429 29.1143 7.42857 30.0518C7.45536 31.7946 7.48393 33.7696 8.85714 35.1429C10.2304 36.5161 12.2054 36.5446 13.9482 36.5714C14.8857 36.5857 15.8536 36.6 16.4375 36.8429C17.0732 37.1054 17.8 37.8018 18.5036 38.475C19.7357 39.6589 21.1357 41 23 41C24.8643 41 26.2625 39.6589 27.4964 38.475C28.2 37.8018 28.925 37.1054 29.5625 36.8429C30.1464 36.6 31.1143 36.5857 32.0518 36.5714C33.7946 36.5446 35.7696 36.5161 37.1429 35.1429C38.5161 33.7696 38.5446 31.7946 38.5714 30.0518C38.5857 29.1143 38.6 28.1464 38.8429 27.5625C39.1054 26.9268 39.8018 26.2 40.475 25.4964C41.6589 24.2643 43 22.8643 43 21C43 19.1357 41.6589 17.7375 40.475 16.5036ZM31.1536 17.725L21.1536 27.725C21.0209 27.8578 20.8633 27.9632 20.6899 28.0351C20.5165 28.107 20.3306 28.144 20.1429 28.144C19.9551 28.144 19.7692 28.107 19.5958 28.0351C19.4224 27.9632 19.2648 27.8578 19.1321 27.725L14.8464 23.4393C14.5784 23.1712 14.4278 22.8077 14.4278 22.4286C14.4278 22.0495 14.5784 21.6859 14.8464 21.4179C15.1145 21.1498 15.4781 20.9992 15.8571 20.9992C16.2362 20.9992 16.5998 21.1498 16.8679 21.4179L20.1429 24.6946L29.1321 15.7036C29.2649 15.5708 29.4224 15.4656 29.5959 15.3937C29.7693 15.3219 29.9552 15.2849 30.1429 15.2849C30.3306 15.2849 30.5164 15.3219 30.6899 15.3937C30.8633 15.4656 31.0208 15.5708 31.1536 15.7036C31.2863 15.8363 31.3916 15.9939 31.4634 16.1673C31.5353 16.3407 31.5722 16.5266 31.5722 16.7143C31.5722 16.902 31.5353 17.0879 31.4634 17.2613C31.3916 17.4347 31.2863 17.5923 31.1536 17.725Z" fill="#45B442"/>
<path d="M40.475 16.5036L39.03 17.8863L39.0319 17.8882L40.475 16.5036ZM38.8429 14.4375L40.6922 13.676L40.6895 13.6695L38.8429 14.4375ZM38.5714 11.9482L40.5712 11.9177L40.5712 11.9175L38.5714 11.9482ZM32.0518 5.42857L32.0825 3.42881L32.0823 3.4288L32.0518 5.42857ZM29.5625 5.15714L30.3305 3.31048L30.3258 3.30854L29.5625 5.15714ZM27.4964 3.525L26.1107 4.96715L26.1137 4.97004L27.4964 3.525ZM18.5036 3.525L19.8863 4.97005L19.8882 4.96815L18.5036 3.525ZM16.4375 5.15714L15.676 3.30776L15.6654 3.31217L16.4375 5.15714ZM13.9482 5.42857L13.9177 3.4288L13.9175 3.42881L13.9482 5.42857ZM7.42857 11.9482L5.42896 11.9072L5.4288 11.9177L7.42857 11.9482ZM7.15714 14.4375L5.31048 13.6695L5.30854 13.6742L7.15714 14.4375ZM5.525 16.5036L6.96715 17.8893L6.97004 17.8863L5.525 16.5036ZM5.525 25.4964L6.97005 24.1137L6.96815 24.1118L5.525 25.4964ZM7.15714 27.5625L5.30778 28.324L5.31049 28.3305L7.15714 27.5625ZM7.42857 30.0518L5.4288 30.0823L5.42881 30.0825L7.42857 30.0518ZM13.9482 36.5714L13.9175 38.5712L13.9177 38.5712L13.9482 36.5714ZM16.4375 36.8429L15.6695 38.6895L15.6742 38.6915L16.4375 36.8429ZM18.5036 38.475L19.8893 37.0329L19.8863 37.03L18.5036 38.475ZM27.4964 38.475L26.1137 37.03L26.1118 37.0319L27.4964 38.475ZM29.5625 36.8429L30.324 38.6922L30.3305 38.6895L29.5625 36.8429ZM32.0518 36.5714L32.0823 38.5712L32.0825 38.5712L32.0518 36.5714ZM38.5714 30.0518L40.5712 30.0825L40.5712 30.0823L38.5714 30.0518ZM38.8429 27.5625L40.6895 28.3305L40.6915 28.3258L38.8429 27.5625ZM40.475 25.4964L39.0329 24.1107L39.03 24.1137L40.475 25.4964ZM21.1536 27.725L19.7394 26.3108L19.7386 26.3116L21.1536 27.725ZM19.1321 27.725L20.5471 26.3116L20.5464 26.3108L19.1321 27.725ZM14.8464 23.4393L13.4322 24.8535L13.4322 24.8535L14.8464 23.4393ZM14.4278 22.4286H12.4278H14.4278ZM16.8679 21.4179L18.2825 20.004L18.2821 20.0036L16.8679 21.4179ZM20.1429 24.6946L18.7283 26.1085L20.1426 27.5236L21.5572 26.1087L20.1429 24.6946ZM29.1321 15.7036L27.7179 14.2894L27.7178 14.2895L29.1321 15.7036ZM31.5722 16.7143L33.5722 16.7143L31.5722 16.7143ZM41.92 15.1209C41.5713 14.7564 41.2796 14.4509 41.0406 14.1645C40.9248 14.0257 40.8385 13.9114 40.7766 13.8188C40.7463 13.7735 40.7251 13.7382 40.7108 13.7123C40.6964 13.6862 40.6915 13.6744 40.6922 13.676L36.9935 15.199C37.2426 15.8041 37.6399 16.3323 37.9692 16.727C38.3124 17.1383 38.7054 17.5471 39.03 17.8863L41.92 15.1209ZM40.6895 13.6695C40.6917 13.6746 40.6461 13.5415 40.6146 13.1607C40.5855 12.8083 40.5786 12.4027 40.5712 11.9177L36.5717 11.9787C36.5786 12.4313 36.5859 12.9783 36.6282 13.4902C36.6682 13.9737 36.7512 14.6164 36.9962 15.2055L40.6895 13.6695ZM40.5712 11.9175C40.5472 10.3554 40.599 7.48482 38.5571 5.44293L35.7286 8.27136C36.4332 8.97589 36.5421 10.0553 36.5717 11.9789L40.5712 11.9175ZM38.5571 5.44293C36.5152 3.40104 33.6446 3.45282 32.0825 3.42881L32.0211 7.42833C33.9447 7.4579 35.0241 7.56682 35.7286 8.27136L38.5571 5.44293ZM32.0823 3.4288C31.5973 3.42141 31.1917 3.41449 30.8393 3.38537C30.4585 3.3539 30.3254 3.30834 30.3305 3.31049L28.7945 7.0038C29.3836 7.2488 30.0263 7.33182 30.5098 7.37178C31.0217 7.41408 31.5687 7.42144 32.0213 7.42834L32.0823 3.4288ZM30.3258 3.30854C30.3274 3.30921 30.3156 3.30436 30.2893 3.28982C30.2633 3.27541 30.2278 3.25405 30.1824 3.22364C30.0894 3.16146 29.9747 3.07491 29.8357 2.95897C29.549 2.71997 29.2427 2.4278 28.8791 2.07996L26.1137 4.97004C26.4538 5.29541 26.8626 5.68806 27.2742 6.03121C27.6687 6.36013 28.1962 6.75676 28.7992 7.00575L30.3258 3.30854ZM28.8821 2.08285C27.7847 1.02833 25.8063 -1 23 -1V3C23.9222 3 24.7439 3.65381 26.1107 4.96715L28.8821 2.08285ZM23 -1C20.1937 -1 18.2161 1.02907 17.1189 2.08185L19.8882 4.96815C21.2589 3.65307 22.0778 3 23 3V-1ZM17.1209 2.07996C16.7564 2.42866 16.4509 2.72041 16.1645 2.95937C16.0257 3.07518 15.9114 3.16146 15.8188 3.22339C15.7735 3.25366 15.7382 3.2749 15.7123 3.28921C15.6862 3.30364 15.6744 3.30845 15.676 3.30779L17.199 7.0065C17.8041 6.75735 18.3323 6.3601 18.727 6.03081C19.1383 5.68763 19.5471 5.29455 19.8863 4.97004L17.1209 2.07996ZM15.6654 3.31217C15.6752 3.30809 15.5449 3.35376 15.1622 3.38535C14.8093 3.41449 14.4027 3.42141 13.9177 3.4288L13.9787 7.42834C14.4312 7.42144 14.9791 7.41408 15.4913 7.37179C15.9738 7.33196 16.6195 7.24905 17.2096 7.00212L15.6654 3.31217ZM13.9175 3.42881C12.3554 3.45282 9.48482 3.40104 7.44293 5.44293L10.2714 8.27136C10.9759 7.56682 12.0553 7.4579 13.9789 7.42833L13.9175 3.42881ZM7.44293 5.44293C5.40082 7.48504 5.4606 10.3649 5.42899 11.9072L9.42815 11.9892C9.46797 10.0458 9.56704 8.97568 10.2714 8.27136L7.44293 5.44293ZM5.4288 11.9177C5.42141 12.4027 5.41449 12.8083 5.38537 13.1607C5.3539 13.5415 5.30834 13.6746 5.31049 13.6695L9.0038 15.2055C9.2488 14.6164 9.33182 13.9737 9.37178 13.4902C9.41408 12.9783 9.42144 12.4313 9.42834 11.9787L5.4288 11.9177ZM5.30854 13.6742C5.30921 13.6726 5.30436 13.6844 5.28982 13.7107C5.27541 13.7367 5.25405 13.7722 5.22364 13.8176C5.16146 13.9106 5.07491 14.0253 4.95897 14.1643C4.71998 14.451 4.4278 14.7573 4.07996 15.1209L6.97004 17.8863C7.29541 17.5462 7.68806 17.1374 8.03121 16.7258C8.36013 16.3313 8.75676 15.8038 9.00575 15.2008L5.30854 13.6742ZM4.08285 15.1179C3.02833 16.2153 1 18.1937 1 21H5C5 20.0778 5.65381 19.2561 6.96715 17.8893L4.08285 15.1179ZM1 21C1 23.8063 3.02907 25.7839 4.08185 26.8811L6.96815 24.1118C5.65307 22.7411 5 21.9222 5 21H1ZM4.07996 26.8791C4.42866 27.2436 4.72041 27.5491 4.95937 27.8355C5.07518 27.9743 5.16146 28.0886 5.22339 28.1812C5.25366 28.2265 5.2749 28.2618 5.28921 28.2877C5.30364 28.3138 5.30845 28.3256 5.30779 28.324L9.0065 26.801C8.75735 26.1959 8.3601 25.6677 8.03081 25.273C7.68763 24.8617 7.29455 24.4529 6.97004 24.1137L4.07996 26.8791ZM5.31049 28.3305C5.30834 28.3254 5.3539 28.4585 5.38537 28.8393C5.41449 29.1917 5.42141 29.5973 5.4288 30.0823L9.42834 30.0213C9.42144 29.5687 9.41408 29.0217 9.37178 28.5098C9.33182 28.0263 9.2488 27.3836 9.0038 26.7945L5.31049 28.3305ZM5.42881 30.0825C5.45282 31.6446 5.40104 34.5152 7.44293 36.5571L10.2714 33.7286C9.56682 33.0241 9.4579 31.9447 9.42833 30.0211L5.42881 30.0825ZM7.44293 36.5571C9.48482 38.599 12.3554 38.5472 13.9175 38.5712L13.9789 34.5717C12.0553 34.5421 10.9759 34.4332 10.2714 33.7286L7.44293 36.5571ZM13.9177 38.5712C14.4027 38.5786 14.8083 38.5855 15.1607 38.6146C15.5415 38.6461 15.6746 38.6917 15.6695 38.6895L17.2055 34.9962C16.6164 34.7512 15.9737 34.6682 15.4902 34.6282C14.9783 34.5859 14.4313 34.5786 13.9787 34.5717L13.9177 38.5712ZM15.6742 38.6915C15.6726 38.6908 15.6844 38.6956 15.7107 38.7102C15.7367 38.7246 15.7722 38.7459 15.8176 38.7764C15.9106 38.8385 16.0253 38.9251 16.1643 39.041C16.451 39.28 16.7573 39.5722 17.1209 39.92L19.8863 37.03C19.5462 36.7046 19.1374 36.3119 18.7258 35.9688C18.3313 35.6399 17.8038 35.2432 17.2008 34.9943L15.6742 38.6915ZM17.1179 39.9172C18.2153 40.9717 20.1937 43 23 43V39C22.0778 39 21.2561 38.3462 19.8893 37.0329L17.1179 39.9172ZM23 43C25.8063 43 27.7839 40.9709 28.8811 39.9182L26.1118 37.0319C24.7411 38.3469 23.9222 39 23 39V43ZM28.8791 39.92C29.2436 39.5713 29.5491 39.2796 29.8355 39.0406C29.9743 38.9248 30.0886 38.8385 30.1812 38.7766C30.2265 38.7463 30.2618 38.7251 30.2877 38.7108C30.3138 38.6964 30.3256 38.6915 30.324 38.6922L28.801 34.9935C28.1959 35.2426 27.6677 35.6399 27.273 35.9692C26.8617 36.3124 26.4529 36.7054 26.1137 37.03L28.8791 39.92ZM30.3305 38.6895C30.3254 38.6917 30.4585 38.6461 30.8393 38.6146C31.1917 38.5855 31.5973 38.5786 32.0823 38.5712L32.0213 34.5717C31.5687 34.5786 31.0217 34.5859 30.5098 34.6282C30.0263 34.6682 29.3836 34.7512 28.7945 34.9962L30.3305 38.6895ZM32.0825 38.5712C33.6446 38.5472 36.5152 38.599 38.5571 36.5571L35.7286 33.7286C35.0241 34.4332 33.9447 34.5421 32.0211 34.5717L32.0825 38.5712ZM38.5571 36.5571C40.599 34.5152 40.5472 31.6446 40.5712 30.0825L36.5717 30.0211C36.5421 31.9447 36.4332 33.0241 35.7286 33.7286L38.5571 36.5571ZM40.5712 30.0823C40.5786 29.5973 40.5855 29.1917 40.6146 28.8393C40.6461 28.4585 40.6917 28.3254 40.6895 28.3305L36.9962 26.7945C36.7512 27.3836 36.6682 28.0263 36.6282 28.5098C36.5859 29.0217 36.5786 29.5687 36.5717 30.0213L40.5712 30.0823ZM40.6915 28.3258C40.6908 28.3274 40.6956 28.3156 40.7102 28.2893C40.7246 28.2633 40.7459 28.2278 40.7764 28.1824C40.8385 28.0894 40.9251 27.9747 41.041 27.8357C41.28 27.549 41.5722 27.2427 41.92 26.8791L39.03 24.1137C38.7046 24.4538 38.3119 24.8626 37.9688 25.2742C37.6399 25.6687 37.2432 26.1962 36.9943 26.7992L40.6915 28.3258ZM41.9172 26.8821C42.9717 25.7847 45 23.8063 45 21H41C41 21.9222 40.3462 22.7439 39.0329 24.1107L41.9172 26.8821ZM45 21C45 18.1937 42.9709 16.2161 41.9182 15.1189L39.0319 17.8882C40.3469 19.2589 41 20.0778 41 21H45ZM29.7394 16.3108L19.7394 26.3108L22.5678 29.1392L32.5678 19.1392L29.7394 16.3108ZM19.7386 26.3116C19.7916 26.2585 19.8547 26.2163 19.924 26.1875L21.4558 29.8826C21.872 29.7101 22.2502 29.4572 22.5686 29.1384L19.7386 26.3116ZM19.924 26.1875C19.9934 26.1588 20.0678 26.144 20.1429 26.144V30.144C20.5934 30.144 21.0396 30.0552 21.4558 29.8826L19.924 26.1875ZM20.1429 26.144C20.2179 26.144 20.2923 26.1588 20.3617 26.1875L18.8299 29.8826C19.2462 30.0552 19.6923 30.144 20.1429 30.144V26.144ZM20.3617 26.1875C20.4311 26.2163 20.4941 26.2585 20.5471 26.3116L17.7171 29.1384C18.0356 29.4572 18.4137 29.7101 18.8299 29.8826L20.3617 26.1875ZM20.5464 26.3108L16.2606 22.0251L13.4322 24.8535L17.7179 29.1392L20.5464 26.3108ZM16.2606 22.0251C16.3677 22.1321 16.4278 22.2772 16.4278 22.4286H12.4278C12.4278 23.3381 12.7891 24.2104 13.4322 24.8535L16.2606 22.0251ZM16.4278 22.4286C16.4278 22.5799 16.3677 22.7251 16.2606 22.8321L13.4322 20.0036C12.7891 20.6468 12.4278 21.5191 12.4278 22.4286L16.4278 22.4286ZM16.2606 22.8321C16.1536 22.9391 16.0085 22.9992 15.8571 22.9992V18.9992C14.9476 18.9992 14.0754 19.3605 13.4322 20.0036L16.2606 22.8321ZM15.8571 22.9992C15.7058 22.9992 15.5607 22.9391 15.4536 22.8321L18.2821 20.0036C17.6389 19.3605 16.7667 18.9992 15.8571 18.9992V22.9992ZM15.4533 22.8317L18.7283 26.1085L21.5575 23.2808L18.2825 20.004L15.4533 22.8317ZM21.5572 26.1087L30.5465 17.1176L27.7178 14.2895L18.7285 23.2806L21.5572 26.1087ZM30.5464 17.1178C30.4934 17.1708 30.4305 17.2128 30.3612 17.2415L28.8305 13.546C28.4144 13.7183 28.0364 13.9709 27.7179 14.2894L30.5464 17.1178ZM30.3612 17.2415C30.292 17.2702 30.2178 17.2849 30.1429 17.2849V13.2849C29.6925 13.2849 29.2466 13.3736 28.8305 13.546L30.3612 17.2415ZM30.1429 17.2849C30.0679 17.2849 29.9937 17.2702 29.9245 17.2415L31.4552 13.546C31.0391 13.3736 30.5932 13.2849 30.1429 13.2849V17.2849ZM29.9245 17.2415C29.8553 17.2128 29.7923 17.1708 29.7394 17.1178L32.5678 14.2894C32.2493 13.9709 31.8713 13.7183 31.4552 13.546L29.9245 17.2415ZM29.7394 17.1178C29.6864 17.0648 29.6443 17.0019 29.6157 16.9327L33.3112 15.4019C33.1388 14.9859 32.8862 14.6078 32.5678 14.2894L29.7394 17.1178ZM29.6157 16.9327C29.587 16.8634 29.5722 16.7892 29.5722 16.7143L33.5722 16.7143C33.5722 16.2639 33.4835 15.818 33.3112 15.4019L29.6157 16.9327ZM29.5722 16.7143C29.5722 16.6393 29.587 16.5651 29.6157 16.4959L33.3112 18.0266C33.4835 17.6106 33.5722 17.1647 33.5722 16.7143L29.5722 16.7143ZM29.6157 16.4959C29.6443 16.4267 29.6864 16.3638 29.7394 16.3108L32.5678 19.1392C32.8862 18.8208 33.1388 18.4427 33.3112 18.0266L29.6157 16.4959Z" fill="white" mask="url(#path-1-inside-1_4155_526)"/>
</g>
<defs>
<filter id="filter0_ddddd_4155_526" x="0" y="5.96046e-08" width="46" height="56" filterUnits="userSpaceOnUse" color-interpolation-filters="sRGB">
<feFlood flood-opacity="0" result="BackgroundImageFix"/>
<feColorMatrix in="SourceAlpha" type="matrix" values="0 0 0 0 0 0 0 0 0 0 0 0 0 0 0 0 0 0 127 0" result="hardAlpha"/>
<feOffset/>
<feGaussianBlur stdDeviation="0.5"/>
<feColorMatrix type="matrix" values="0 0 0 0 0 0 0 0 0 0 0 0 0 0 0 0 0 0 0.29 0"/>
<feBlend mode="normal" in2="BackgroundImageFix" result="effect1_dropShadow_4155_526"/>
<feColorMatrix in="SourceAlpha" type="matrix" values="0 0 0 0 0 0 0 0 0 0 0 0 0 0 0 0 0 0 127 0" result="hardAlpha"/>
<feOffset dy="2"/>
<feGaussianBlur stdDeviation="1"/>
<feColorMatrix type="matrix" values="0 0 0 0 0 0 0 0 0 0 0 0 0 0 0 0 0 0 0.26 0"/>
<feBlend mode="normal" in2="effect1_dropShadow_4155_526" result="effect2_dropShadow_4155_526"/>
<feColorMatrix in="SourceAlpha" type="matrix" values="0 0 0 0 0 0 0 0 0 0 0 0 0 0 0 0 0 0 127 0" result="hardAlpha"/>
<feOffset dy="4"/>
<feGaussianBlur stdDeviation="1.5"/>
<feColorMatrix type="matrix" values="0 0 0 0 0 0 0 0 0 0 0 0 0 0 0 0 0 0 0.15 0"/>
<feBlend mode="normal" in2="effect2_dropShadow_4155_526" result="effect3_dropShadow_4155_526"/>
<feColorMatrix in="SourceAlpha" type="matrix" values="0 0 0 0 0 0 0 0 0 0 0 0 0 0 0 0 0 0 127 0" result="hardAlpha"/>
<feOffset dy="8"/>
<feGaussianBlur stdDeviation="1.5"/>
<feColorMatrix type="matrix" values="0 0 0 0 0 0 0 0 0 0 0 0 0 0 0 0 0 0 0.04 0"/>
<feBlend mode="normal" in2="effect3_dropShadow_4155_526" result="effect4_dropShadow_4155_526"/>
<feColorMatrix in="SourceAlpha" type="matrix" values="0 0 0 0 0 0 0 0 0 0 0 0 0 0 0 0 0 0 127 0" result="hardAlpha"/>
<feOffset dy="12"/>
<feGaussianBlur stdDeviation="1.5"/>
<feColorMatrix type="matrix" values="0 0 0 0 0 0 0 0 0 0 0 0 0 0 0 0 0 0 0.01 0"/>
<feBlend mode="normal" in2="effect4_dropShadow_4155_526" result="effect5_dropShadow_4155_526"/>
<feBlend mode="normal" in="SourceGraphic" in2="effect5_dropShadow_4155_526" result="shape"/>
</filter>
</defs>
</svg>
